# xmcd CD database file
#
# Track frame offsets:
#	150
#	14980
#	28338
#	39435
#	56118
#	67415
#	80448
#	94530
#	106648
#	119843
#
# Disc length: 1728 seconds
#
# Revision: 0
# Processed by: cddbd v1.5.2PL0 Copyright (c) Steve Scherf et al.
# Submitted via: CDex 1.70beta2
#
DISCID=8f06be0a
DTITLE=George Highfill - George Arlis Highfill
DYEAR=1992
DGENRE=Country
TTITLE0=Mama You Can't Blame Me
TTITLE1=Lone Star In Texas
TTITLE2=Oklahoma's Home To Me
TTITLE3=Delicate Hands
TTITLE4=Whatever Happened
TTITLE5=I'll Be There (When The Highlife Lets You Down)
TTITLE6=Is There A Place (Where Old Feelings Go)
TTITLE7=Don't Blame Me
TTITLE8=Curtain Hangin' Mood
TTITLE9=Just Passin' Through
EXTD=YEAR: 1992
EXTT0=
EXTT1=
EXTT2=
EXTT3=
EXTT4=
EXTT5=
EXTT6=
EXTT7=
EXTT8=
EXTT9=
PLAYORDER=
